<svg width="580" height="400" xmlns="http://www.w3.org/2000/svg">
 <!-- Created with Method Draw - http://github.com/duopixel/Method-Draw/ -->

 <g>
  <title>background</title>
  <rect x="-1" y="-1" width="582" height="402" id="canvas_background" fill="#fff"/>
  <g id="canvasGrid" display="none">
   <rect id="svg_1" width="100%" height="100%" x="0" y="0" stroke-width="0" fill="url(#gridpattern)"/>
  </g>
 </g>
 <g>
  <title>Layer 1</title>
  <path stroke="#000" id="svg_23" d="m250.677501,276.46666l49.500014,-48.499995l49.500014,48.499995l-49.500014,48.499995l-49.500014,-48.499995z" fill-opacity="null" stroke-opacity="null" stroke-width="1.5" fill="#000000"/>
  <path stroke="#000" id="svg_26" d="m327.381546,274.587882l27.942747,0l0,-57.134706c-0.156417,-14.194235 -3.407652,-31.674942 -12.133476,-48.598197c-8.597338,-16.756851 -24.104948,-30.951086 -44.349753,-30.67652c-20.261564,-0.266246 -35.769174,13.927989 -44.360926,30.67652c-8.725824,16.923255 -11.982645,34.412283 -12.144648,48.606517l0,57.126386l27.931574,0l0,-57.126386c-0.15083,-3.13671 1.692653,-14.88481 6.13936,-22.863867c4.575192,-8.145461 10.32351,-14.535362 22.423468,-14.793288c12.094372,0.266246 17.848276,6.647827 22.417881,14.793288c4.457879,7.979057 6.29019,19.735477 6.13936,22.863867l0,57.126386l-0.005586,0zm27.942747,50.578401c0,0 0,-19.585714 0,-42.258217l-27.942747,0c0,22.689143 0,42.266537 0,42.266537l27.953919,-0.00832l-0.011173,0zm-112.988803,0.00832l27.931574,0c0,0 0,-19.585714 0,-42.266537l-27.931574,0c0,22.689143 0,42.266537 0,42.266537z" fill-opacity="null" stroke-opacity="null" stroke-width="1.5" fill="#000000"/>
  <path stroke="#000" id="svg_28" d="m253.8625,129.166663l43.500011,-43.500001l43.500011,43.500001l-43.500011,43.500001l-43.500011,-43.500001z" fill-opacity="null" stroke-opacity="null" stroke-width="1.5" fill="#000000"/>
 </g>
</svg>