<svg xmlns="http://www.w3.org/2000/svg" xmlns:xlink="http://www.w3.org/1999/xlink">
 <!-- Created with Method Draw - http://github.com/duopixel/Method-Draw/ -->

 <g>
  <title>Layer 1</title>
  
  <path stroke="#000" id="svg_1" d="m170.48055,174.45322c-3.41755,-0.48626 -6.59191,-3.13108 -5.94719,-6.21849c0.32631,-3.38934 3.5224,-6.1172 6.73816,-7.91448c4.27975,-2.45595 10.13138,-3.3683 14.84775,-1.25008c0.27635,-17.08439 0.11885,-34.17307 0.16071,-51.25939c2.97417,-0.60704 2.01253,2.67531 2.68801,4.19325c0.64456,4.46357 4.19622,7.96597 7.73148,11.09344c4.38607,3.93109 9.04346,8.09924 10.46909,13.5455c1.55676,6.31886 -0.93197,12.78312 -4.16167,18.44603c-0.23387,1.8149 -4.18326,4.44065 -2.30163,1.16102c3.16833,-5.61037 5.78579,-12.07166 3.62319,-18.28427c-2.05941,-6.19902 -8.47845,-11.37613 -16.11988,-12.30442c-0.04938,13.08969 0.12026,26.18185 -0.1811,39.26945c-0.75123,3.85514 -4.72361,6.71563 -8.70721,8.34899c-2.74688,1.00813 -5.84711,1.61809 -8.8397,1.17346l-0.00001,-0.00001z" stroke-width="1.5" fill="#000000"/>
 </g>
</svg>