<svg width="580" height="400" xmlns="http://www.w3.org/2000/svg">
 <!-- Created with Method Draw - http://github.com/duopixel/Method-Draw/ -->

 <g>
  <title>background</title>
  <rect x="-1" y="-1" width="582" height="402" id="canvas_background" fill="#fff"/>
  <g id="canvasGrid" display="none">
   <rect id="svg_1" width="100%" height="100%" x="0" y="0" stroke-width="0" fill="url(#gridpattern)"/>
  </g>
 </g>
 <g>
  <title>Layer 1</title>
  <path id="svg_16" d="m225.087505,202.556662l0,-57.937501l0,0c0,-24.887331 26.834934,-45.062505 59.937507,-45.062505l0,0l0,0c15.896411,0 31.14175,4.747644 42.382224,13.198502c11.240465,8.450858 17.555279,19.912683 17.555279,31.864003l0,6.437501l17.124988,0l-34.249981,25.750012l-34.250013,-25.750012l17.125002,0l0,-6.437501c0,-10.665998 -11.500692,-19.312497 -25.687494,-19.312497l0,0l0,0c-14.186821,0 -25.687503,8.646499 -25.687503,19.312497l0,57.937501l-34.250009,0z" fill-opacity="null" stroke-opacity="null" stroke-width="1.5" stroke="#000" fill="#000000"/>
  <path id="svg_18" d="m225.08751,343.55666l0,-57.9375l0,0c0,-24.88733 26.83493,-45.0625 59.9375,-45.0625l0,0l0,0c15.89641,0 31.14175,4.74764 42.38223,13.1985c11.24046,8.45086 17.55527,19.91268 17.55527,31.864l0,6.4375l17.12499,0l-34.24998,25.75001l-34.25001,-25.75001l17.125,0l0,-6.4375c0,-10.666 -11.50069,-19.3125 -25.68749,-19.3125l0,0l0,0c-14.18682,0 -25.68751,8.6465 -25.68751,19.3125l0,57.9375l-34.25,0z" fill-opacity="null" stroke-opacity="null" stroke-width="1.5" stroke="#000" fill="#000000"/>
  <path id="svg_19" d="m225.08751,248.55666l0,-57.9375l0,0c0,-24.88733 26.83493,-45.0625 59.9375,-45.0625l0,0l0,0c15.89641,0 31.14175,4.74764 42.38223,13.1985c11.24046,8.45086 17.55527,19.91268 17.55527,31.864l0,6.4375l17.12499,0l-34.24998,25.75001l-34.25001,-25.75001l17.125,0l0,-6.4375c0,-10.666 -11.50069,-19.3125 -25.68749,-19.3125l0,0l0,0c-14.18682,0 -25.68751,8.6465 -25.68751,19.3125l0,57.9375l-34.25,0z" fill-opacity="null" stroke-opacity="null" stroke-width="1.5" stroke="#000" fill="#000000"/>
  <path id="svg_20" d="m225.08751,295.55666l0,-57.9375l0,0c0,-24.88733 26.83493,-45.0625 59.9375,-45.0625l0,0l0,0c15.89641,0 31.14175,4.74764 42.38223,13.1985c11.24046,8.45086 17.55527,19.91268 17.55527,31.864l0,6.4375l17.12499,0l-34.24998,25.75001l-34.25001,-25.75001l17.125,0l0,-6.4375c0,-10.666 -11.50069,-19.3125 -25.68749,-19.3125l0,0l0,0c-14.18682,0 -25.68751,8.6465 -25.68751,19.3125l0,57.9375l-34.25,0z" fill-opacity="null" stroke-opacity="null" stroke-width="1.5" stroke="#000" fill="#000000"/>
  <path stroke="#000" id="svg_21" d="m344.657506,301.480027c0,5.891034 -26.191348,10.666662 -58.500013,10.666662m58.500013,-10.666662l0,0c0,5.891034 -26.191348,10.666662 -58.500013,10.666662c-32.308653,0 -58.499993,-4.775618 -58.499993,-10.666662m0,0l0,0c0,-5.891029 26.19134,-10.66666 58.499993,-10.66666c32.308665,0 58.500013,4.775631 58.500013,10.66666l0,42.666667c0,5.891028 -26.191348,10.666643 -58.500013,10.666643c-32.308653,0 -58.499993,-4.775615 -58.499993,-10.666643l0,-42.666667z" fill-opacity="null" stroke-opacity="null" stroke-width="1.5" fill="#000000"/>
 </g>
</svg>